<svg width="1271" height="1271" viewBox="0 0 1271 1271" fill="none" xmlns="http://www.w3.org/2000/svg">
<rect width="1271" height="1271" fill="url(#paint0_linear_25_2)"/>
<path d="M154.5 624.5L181 682H146L123 863.5L209 998.5L662 998L661 269H202L201.982 270.133L154.5 624.5Z" fill="black"/>
<path d="M202 270L201.982 270.133M201.982 270.133L154.5 624.5L181 682H146L123 863.5L209 998.5L662 998L661 269H202L201.982 270.133Z" stroke="black"/>
<path d="M677 269H907L933.5 682H1126.1L1146 863L1073 998.5L677 998V269Z" fill="black" stroke="black"/>
<path d="M633 310H232L196 612H444L437.124 725H182L167 843H627L631 506H389L397.214 405H632L633 310Z" fill="url(#paint1_linear_25_2)"/>
<path d="M396 411H382L374 518H616L613.5 710H628L630 506H389L396 411Z" fill="url(#paint2_linear_25_2)"/>
<path d="M196.5 611.5L221 406H235L212 599H460L454 710.5H438.5L444.5 611.5H196.5Z" fill="url(#paint3_linear_25_2)"/>
<path d="M627 843.5H167L234.5 962.5H633.5L627 843.5Z" fill="#4E4D0E"/>
<path d="M710 827L706 310H877L900 725H1091L1101 827H710Z" fill="url(#paint4_linear_25_2)"/>
<path d="M710 843V827H1101L1102.89 843H710Z" fill="#9CFFFF"/>
<path d="M705 962L710 843H1103L1048 962H705Z" fill="#1C3953"/>
<defs>
<linearGradient id="paint0_linear_25_2" x1="0" y1="0" x2="1271" y2="1271" gradientUnits="userSpaceOnUse">
<stop stop-color="#CEC90D"/>
<stop offset="0.346154" stop-color="#434343"/>
<stop offset="0.596154" stop-color="#434343"/>
<stop offset="1" stop-color="#084882"/>
</linearGradient>
<linearGradient id="paint1_linear_25_2" x1="405.5" y1="309.5" x2="400" y2="843" gradientUnits="userSpaceOnUse">
<stop stop-color="#CDC80F"/>
<stop offset="1" stop-color="#E3DE27"/>
</linearGradient>
<linearGradient id="paint2_linear_25_2" x1="394.888" y1="436.039" x2="622.763" y2="722.37" gradientUnits="userSpaceOnUse">
<stop stop-color="#D1CC13"/>
<stop offset="0.05" stop-color="#E0DC1F"/>
<stop offset="0.274038" stop-color="#F6F51F"/>
<stop offset="0.75" stop-color="#F6F51F"/>
<stop offset="0.85" stop-color="#D1CB0E"/>
<stop offset="1" stop-color="#DDD821"/>
</linearGradient>
<linearGradient id="paint3_linear_25_2" x1="218" y1="431.5" x2="449.5" y2="725.5" gradientUnits="userSpaceOnUse">
<stop stop-color="#D1CC13"/>
<stop offset="0.05" stop-color="#E0DC1F"/>
<stop offset="0.274038" stop-color="#F6F51F"/>
<stop offset="0.75" stop-color="#F6F51F"/>
<stop offset="0.85" stop-color="#D1CB0E"/>
<stop offset="1" stop-color="#DDD821"/>
</linearGradient>
<linearGradient id="paint4_linear_25_2" x1="903.5" y1="310" x2="903.5" y2="827" gradientUnits="userSpaceOnUse">
<stop stop-color="#00396C"/>
<stop offset="1" stop-color="#4DA1EB"/>
</linearGradient>
</defs>
</svg>
